<svg xmlns="http://www.w3.org/2000/svg" viewBox="0 0 48 48" width="48" height="48">
  <defs>
    <linearGradient id="stampBg" x1="0%" y1="0%" x2="100%" y2="100%">
      <stop offset="0%" stop-color="#1a73e8"/>
      <stop offset="100%" stop-color="#0b57d0"/>
    </linearGradient>
    <linearGradient id="innerBg" x1="0%" y1="0%" x2="0%" y2="100%">
      <stop offset="0%" stop-color="#ffffff"/>
      <stop offset="100%" stop-color="#f1f5f9"/>
    </linearGradient>
  </defs>

  <!-- Perforated Stamp Base -->
  <path d="M 7,4 
L 10.2,4 A 1.8 1.8 0 0 0 13.8,4 
L 18.2,4 A 1.8 1.8 0 0 0 21.8,4 
L 26.2,4 A 1.8 1.8 0 0 0 29.8,4 
L 34.2,4 A 1.8 1.8 0 0 0 37.8,4 
L 41,4 Q 44,4 44,7 
L 44,10.2 A 1.8 1.8 0 0 0 44,13.8 
L 44,18.2 A 1.8 1.8 0 0 0 44,21.8 
L 44,26.2 A 1.8 1.8 0 0 0 44,29.8 
L 44,34.2 A 1.8 1.8 0 0 0 44,37.8 
L 44,41 Q 44,44 41,44 
L 37.8,44 A 1.8 1.8 0 0 0 34.2,44 
L 29.8,44 A 1.8 1.8 0 0 0 26.2,44 
L 21.8,44 A 1.8 1.8 0 0 0 18.2,44 
L 13.8,44 A 1.8 1.8 0 0 0 10.2,44 
L 7,44 Q 4,44 4,41 
L 4,37.8 A 1.8 1.8 0 0 0 4,34.2 
L 4,29.8 A 1.8 1.8 0 0 0 4,26.2 
L 4,21.8 A 1.8 1.8 0 0 0 4,18.2 
L 4,13.8 A 1.8 1.8 0 0 0 4,10.2 
L 4,7 Q 4,4 7,4 Z" fill="url(#stampBg)"/>

  <!-- Inner Stamp Album Card -->
  <rect x="8.5" y="8.5" width="31" height="31" rx="2.5" fill="url(#innerBg)"/>

  <!-- Album Page Margin Border -->
  <rect x="11.5" y="11.5" width="25" height="25" rx="1.5" fill="none" stroke="#cbd5e1" stroke-width="0.75"/>

  <!-- Geometric Stamp Mounts Grid forming Monogram A -->
  <!-- Top Stamp (Apex) -->
  <rect x="19.5" y="14.5" width="9" height="7" rx="1" fill="#1a73e8"/>
  
  <!-- Bottom Left Stamp -->
  <rect x="14.5" y="24.5" width="8.5" height="8" rx="1" fill="#1a73e8"/>
  
  <!-- Bottom Right Stamp -->
  <rect x="25" y="24.5" width="8.5" height="8" rx="1" fill="#1a73e8"/>

  <!-- Connecting Layout Rail / Crossbar -->
  <rect x="18" y="22.5" width="12" height="2" rx="1" fill="#f59e0b"/>
</svg>